<?xml version="1.0" standalone="no"?>
<!DOCTYPE svg PUBLIC "-//W3C//DTD SVG 20010904//EN"
 "http://www.w3.org/TR/2001/REC-SVG-20010904/DTD/svg10.dtd">
<svg version="1.0" xmlns="http://www.w3.org/2000/svg"
 width="300.000000pt" height="300.000000pt" viewBox="0 0 300.000000 300.000000"
 preserveAspectRatio="xMidYMid meet">
<metadata>
Created by potrace 1.10, written by Peter Selinger 2001-2011
</metadata>
<g transform="translate(0.000000,300.000000) scale(0.100000,-0.100000)"
fill="#01dd01" stroke="none">
<path d="M1345 2784 c-52 -14 -165 -65 -191 -86 -95 -77 -181 -179 -199 -238
-4 -14 -11 -29 -15 -35 -4 -5 -15 -38 -24 -73 -23 -90 -23 -540 -1 -637 9 -37
20 -74 25 -83 5 -9 19 -39 32 -66 13 -27 55 -83 93 -124 l70 -75 3 -96 c2 -53
0 -118 -3 -146 -6 -46 -10 -52 -53 -80 -25 -16 -51 -32 -56 -34 -6 -2 -47 -20
-91 -41 -44 -21 -109 -50 -145 -66 -36 -15 -82 -38 -102 -51 -21 -13 -40 -23
-43 -23 -13 0 -123 -81 -165 -122 -92 -88 -134 -159 -163 -274 -16 -62 -25
-179 -15 -190 3 -3 538 -5 1189 -5 943 1 1184 3 1191 13 16 26 -16 200 -52
281 -38 88 -131 190 -240 264 -66 44 -282 153 -305 153 -14 0 -192 92 -214
110 -23 20 -24 26 -25 165 l-1 144 51 53 c94 99 139 178 168 296 22 88 23 532
1 624 -14 60 -61 171 -88 205 -16 21 -129 135 -148 149 -14 10 -80 46 -121 65
-77 37 -268 49 -363 23z"/>
</g>
</svg>
